<?xml version="1.0" standalone="no"?>
<!DOCTYPE svg PUBLIC "-//W3C//DTD SVG 20010904//EN"
 "http://www.w3.org/TR/2001/REC-SVG-20010904/DTD/svg10.dtd">
<svg version="1.0" xmlns="http://www.w3.org/2000/svg"
 width="1000.000000pt" height="375.000000pt" viewBox="0 0 1000.000000 375.000000"
 preserveAspectRatio="xMidYMid meet">
<metadata>
Created by potrace 1.16, written by Peter Selinger 2001-2019
</metadata>
<g transform="translate(0.000000,375.000000) scale(0.100000,-0.100000)"
fill="#000000" stroke="none">
<path d="M3662 3250 c-96 -25 -162 -62 -226 -127 -98 -97 -146 -223 -146 -383
0 -247 119 -424 336 -501 76 -27 248 -37 336 -20 61 12 163 55 202 86 18 14
17 17 -19 114 -50 133 -45 127 -91 99 -71 -44 -120 -58 -207 -58 -153 0 -233
65 -257 211 -25 150 22 274 124 324 52 25 63 27 149 23 81 -4 100 -8 157 -39
36 -18 68 -35 71 -37 4 -2 25 46 48 105 l42 108 -33 28 c-95 80 -319 111 -486
67z"/>
<path d="M4696 3254 c-86 -21 -168 -69 -231 -135 -101 -105 -140 -229 -132
-409 8 -172 51 -275 156 -373 91 -85 209 -127 358 -127 159 0 279 45 374 140
98 97 149 231 149 390 0 267 -152 470 -388 519 -72 15 -214 12 -286 -5z m241
-235 c70 -26 118 -101 133 -209 25 -175 -45 -335 -155 -356 -66 -12 -150 0
-193 28 -70 47 -111 175 -97 307 18 168 84 240 222 241 34 0 74 -5 90 -11z"/>
<path d="M8914 3251 c-106 -26 -181 -67 -250 -136 -104 -103 -144 -209 -144
-380 0 -172 47 -293 151 -389 112 -104 234 -141 444 -133 129 5 231 25 318 61
l37 16 0 260 0 260 -225 0 -225 0 0 -100 0 -100 105 0 105 0 0 -74 0 -75 -56
-7 c-143 -17 -257 11 -308 79 -70 92 -73 284 -6 390 72 113 291 141 449 56 30
-16 55 -28 57 -26 11 11 83 211 78 218 -11 18 -124 69 -186 84 -86 20 -254 18
-344 -4z"/>
<path d="M5600 2740 l0 -522 273 5 c204 3 288 9 335 21 185 47 312 169 357
343 19 74 19 232 0 308 -35 133 -116 235 -234 294 -108 55 -159 63 -458 68
l-273 5 0 -522z m539 264 c105 -31 161 -123 161 -264 0 -94 -23 -163 -70 -210
-52 -52 -115 -70 -247 -70 l-103 0 0 280 0 280 103 0 c64 0 123 -6 156 -16z"/>
<path d="M6815 3248 c-3 -7 -4 -240 -3 -518 l3 -505 143 -3 142 -3 -2 518 -3
518 -138 3 c-104 2 -139 -1 -142 -10z"/>
<path d="M7355 3248 c-3 -7 -4 -240 -3 -518 l3 -505 132 -3 133 -3 2 285 3
285 228 -285 228 -285 102 3 102 3 0 515 0 515 -130 0 -130 0 -3 -283 -2 -284
-231 286 -230 286 -100 0 c-70 0 -101 -4 -104 -12z"/>
<path d="M1160 2104 c0 -40 65 -168 111 -219 93 -101 200 -113 351 -38 71 36
206 138 195 149 -4 4 -628 124 -646 124 -6 0 -11 -7 -11 -16z"/>
<path d="M2347 2054 c-165 -34 -301 -65 -304 -68 -10 -9 115 -97 194 -137 101
-50 188 -67 253 -49 90 24 168 138 186 269 6 46 5 51 -12 50 -11 -1 -153 -30
-317 -65z"/>
<path d="M8887 1804 c-139 -33 -248 -117 -287 -221 -31 -83 -26 -210 13 -275
57 -97 129 -135 358 -184 90 -19 173 -41 186 -49 46 -30 39 -88 -14 -123 -22
-14 -48 -17 -138 -16 -96 1 -122 5 -205 33 -52 18 -109 41 -127 52 -26 16 -34
18 -38 7 -60 -167 -75 -214 -71 -225 8 -21 125 -71 224 -95 126 -31 320 -32
417 -1 181 57 278 173 277 332 0 82 -9 116 -48 173 -54 78 -137 115 -353 159
-80 16 -155 36 -168 45 -53 34 -51 95 4 131 22 15 48 18 143 18 122 -1 195
-19 259 -64 16 -12 33 -21 38 -21 12 0 86 208 80 224 -9 23 -146 85 -222 101
-87 18 -251 18 -328 -1z"/>
<path d="M3330 1255 l0 -555 140 0 140 0 2 305 3 304 243 -304 244 -305 114 0
114 0 -2 553 -3 552 -140 0 -140 0 0 -307 c0 -169 -3 -304 -6 -300 -3 4 -111
138 -239 297 -128 160 -240 296 -248 303 -10 8 -51 12 -119 12 l-103 0 0 -555z"/>
<path d="M4637 1804 c-4 -4 -7 -254 -7 -556 l0 -548 155 0 155 0 -2 553 -3
552 -146 3 c-80 1 -148 -1 -152 -4z"/>
<path d="M5245 1798 c-3 -7 -4 -256 -3 -553 l3 -540 143 -3 142 -3 0 307 0
306 245 -306 245 -306 110 0 110 0 0 555 0 556 -137 -3 -138 -3 -5 -302 -5
-302 -230 285 c-126 157 -238 294 -248 304 -15 17 -32 20 -123 20 -74 0 -106
-4 -109 -12z"/>
<path d="M6685 1798 c-3 -7 -6 -258 -7 -556 l-3 -544 -29 -25 c-28 -24 -35
-25 -108 -21 l-78 5 0 -118 0 -117 67 -8 c86 -9 206 0 264 21 102 35 169 128
189 261 7 44 9 261 8 589 l-3 520 -148 3 c-112 2 -149 0 -152 -10z"/>
<path d="M7664 1778 c-16 -31 -489 -1038 -501 -1065 -4 -10 29 -13 148 -13
l154 0 45 110 45 110 241 0 241 0 48 -110 49 -110 148 0 c84 0 148 4 148 9 0
12 -499 1072 -512 1089 -7 8 -45 12 -124 12 l-113 0 -17 -32z m206 -454 c36
-86 67 -160 68 -165 2 -5 -57 -9 -138 -9 -131 0 -142 1 -136 18 27 71 131 312
136 312 3 0 34 -70 70 -156z"/>
</g>
</svg>
